<?xml version="1.0" standalone="no"?>
<!DOCTYPE svg PUBLIC "-//W3C//DTD SVG 20010904//EN"
 "http://www.w3.org/TR/2001/REC-SVG-20010904/DTD/svg10.dtd">
<svg version="1.0" xmlns="http://www.w3.org/2000/svg"
 width="1891.000000pt" height="1891.000000pt" viewBox="0 0 1891.000000 1891.000000"
 preserveAspectRatio="xMidYMid meet">
<metadata>
Created by potrace 1.14, written by Peter Selinger 2001-2017
</metadata>
<g transform="translate(0.000000,1891.000000) scale(0.100000,-0.100000)"
fill="#000000" stroke="none">
<path d="M9177 18904 c-1 -1 -76 -5 -167 -8 -91 -4 -181 -9 -200 -11 -19 -1
-75 -6 -125 -10 -49 -3 -110 -8 -135 -11 -90 -9 -221 -23 -260 -29 -14 -2 -52
-7 -85 -11 -33 -3 -69 -8 -80 -10 -11 -2 -40 -7 -65 -10 -25 -3 -56 -7 -70
-10 -14 -2 -41 -7 -60 -10 -39 -6 -355 -64 -382 -70 -10 -2 -28 -6 -40 -9 -13
-3 -34 -7 -48 -10 -64 -10 -518 -124 -620 -155 -19 -6 -44 -13 -55 -15 -25 -6
-480 -156 -560 -185 -450 -165 -950 -393 -1330 -606 -66 -37 -140 -78 -165
-92 -46 -26 -353 -213 -380 -232 -16 -11 -74 -49 -99 -65 -100 -62 -588 -414
-637 -459 -7 -6 -29 -24 -50 -41 -105 -84 -315 -261 -403 -340 -144 -130 -190
-174 -391 -375 -221 -221 -312 -319 -476 -509 -16 -19 -33 -39 -39 -45 -24
-27 -72 -85 -100 -120 -16 -21 -35 -44 -40 -50 -31 -33 -297 -379 -332 -432
-7 -11 -37 -53 -66 -94 -121 -171 -337 -504 -337 -520 0 -6 -4 -10 -8 -10 -4
0 -13 -12 -20 -27 -6 -16 -34 -64 -61 -108 -28 -44 -50 -83 -51 -86 0 -4 -19
-38 -42 -75 -44 -73 -281 -540 -335 -659 -17 -38 -43 -97 -58 -130 -15 -33
-42 -98 -61 -145 -19 -47 -41 -98 -48 -115 -8 -16 -28 -68 -46 -115 -18 -47
-36 -94 -41 -105 -31 -69 -172 -495 -234 -710 -40 -136 -117 -433 -129 -495
-2 -14 -16 -77 -30 -140 -14 -63 -27 -126 -29 -140 -15 -81 -20 -107 -24 -125
-5 -25 -61 -367 -67 -415 -3 -19 -8 -59 -11 -89 -4 -30 -8 -62 -10 -71 -2 -9
-6 -50 -10 -91 -4 -41 -8 -85 -10 -99 -35 -344 -45 -563 -44 -965 0 -165 2
-334 3 -375 5 -111 16 -289 21 -340 2 -25 7 -76 10 -115 5 -68 30 -298 41
-380 16 -125 37 -263 54 -360 28 -161 28 -166 51 -277 11 -57 23 -114 25 -128
3 -14 7 -33 10 -42 3 -9 7 -25 9 -35 7 -35 45 -198 55 -238 6 -22 13 -51 16
-65 2 -14 9 -38 14 -55 5 -16 16 -55 24 -85 181 -685 507 -1474 882 -2137 117
-207 427 -701 453 -723 3 -3 26 -34 50 -70 111 -162 367 -495 505 -655 33 -38
67 -78 76 -88 8 -10 22 -27 30 -37 8 -10 53 -59 100 -110 47 -51 98 -107 113
-124 179 -195 536 -536 793 -756 96 -83 372 -302 469 -372 5 -4 24 -18 40 -31
37 -29 309 -219 385 -268 244 -160 379 -242 598 -366 120 -68 585 -305 702
-357 416 -187 805 -332 1220 -456 93 -28 426 -118 459 -125 9 -2 57 -13 106
-24 177 -43 558 -115 715 -136 25 -3 52 -8 60 -10 8 -2 44 -7 80 -10 36 -3 72
-8 80 -10 8 -2 42 -6 75 -10 115 -12 150 -16 185 -20 67 -9 220 -20 425 -32
175 -10 892 -10 1040 1 61 4 137 9 170 11 73 5 177 14 225 20 19 2 67 7 105
10 39 3 85 8 103 11 17 2 47 6 65 8 17 3 55 8 82 11 28 4 61 8 75 11 14 2 57
9 95 15 99 15 175 27 210 34 17 3 66 12 110 20 299 55 673 147 985 242 167 50
540 179 607 209 17 8 35 14 40 14 12 0 400 164 543 230 224 102 581 287 770
398 52 31 106 62 120 70 14 7 45 26 70 42 25 16 59 37 75 46 51 29 406 264
422 279 8 8 24 20 36 27 18 9 246 174 297 215 8 6 67 53 130 103 125 98 148
118 314 260 578 496 1123 1101 1566 1735 130 186 304 454 369 568 10 18 50 86
88 152 213 364 453 867 613 1280 34 89 214 611 229 666 2 8 15 50 28 94 48
160 133 495 159 620 7 39 24 120 30 145 9 46 41 216 50 270 3 14 7 36 9 50 3
14 8 43 10 65 3 22 7 47 10 55 4 16 10 56 29 215 3 28 8 66 11 85 3 19 8 55
10 80 2 25 7 72 10 105 3 33 8 76 10 95 2 19 7 73 11 120 3 47 7 101 9 120 22
230 22 936 0 1255 -6 85 -16 212 -20 245 -2 19 -7 64 -10 100 -8 81 -14 135
-20 180 -3 19 -7 51 -9 70 -6 51 -20 154 -21 160 -1 3 -5 28 -9 55 -10 65 -15
94 -20 125 -3 14 -12 66 -21 115 -22 129 -24 138 -50 262 -14 61 -26 122 -29
135 -2 13 -9 41 -14 63 -6 22 -13 51 -16 65 -45 225 -226 817 -341 1115 -25
66 -48 125 -49 130 -2 6 -8 21 -13 35 -6 14 -31 75 -56 135 -182 439 -399 866
-655 1290 -83 136 -258 404 -350 535 -54 77 -305 411 -332 443 -10 12 -55 67
-101 122 -69 85 -115 138 -199 235 -142 162 -569 598 -716 730 -33 30 -81 73
-105 95 -51 46 -259 221 -369 311 -187 151 -508 384 -742 537 -126 82 -426
267 -433 267 -3 0 -34 18 -70 40 -36 22 -67 40 -69 40 -2 0 -33 16 -68 36 -72
42 -461 238 -558 282 -374 170 -700 297 -1085 422 -55 18 -113 36 -130 41 -16
4 -93 26 -170 48 -77 23 -152 44 -167 46 -15 3 -37 9 -50 14 -13 5 -27 9 -33
9 -5 1 -28 6 -50 11 -130 35 -525 118 -645 136 -25 4 -54 9 -65 11 -43 8 -202
33 -245 39 -25 3 -62 7 -82 10 -95 12 -115 15 -148 19 -179 21 -397 40 -633
52 -98 6 -735 12 -740 8z"/>
</g>
</svg>
